<?xml version="1.0" standalone="no"?>
<!DOCTYPE svg PUBLIC "-//W3C//DTD SVG 20010904//EN"
 "http://www.w3.org/TR/2001/REC-SVG-20010904/DTD/svg10.dtd">
<svg version="1.0" xmlns="http://www.w3.org/2000/svg"
 width="256.000000pt" height="256.000000pt" viewBox="0 0 256.000000 256.000000"
 preserveAspectRatio="xMidYMid meet">

<g transform="translate(0.000000,256.000000) scale(0.100000,-0.100000)"
fill="#d9493f" stroke="none">
<path d="M1116 2549 c-483 -67 -895 -404 -1046 -857 -50 -152 -64 -242 -64
-412 0 -171 14 -260 65 -415 121 -362 433 -673 797 -795 152 -50 242 -64 412
-64 274 0 482 62 710 212 277 183 475 480 547 822 24 117 24 363 0 480 -57
271 -178 492 -371 678 -182 175 -391 286 -641 337 -96 20 -314 28 -409 14z
m344 -134 c700 -114 1134 -828 910 -1497 -202 -602 -853 -928 -1452 -728 -602
202 -928 853 -728 1452 179 533 719 862 1270 773z"/>
<path d="M822 1754 c-15 -10 -22 -25 -22 -46 0 -28 25 -57 195 -228 l195 -195
-195 -195 c-157 -157 -195 -200 -195 -222 0 -35 24 -58 63 -58 27 0 56 25 224
192 l193 192 193 -192 c168 -167 197 -192 224 -192 39 0 63 23 63 58 0 22 -38
65 -195 222 l-195 195 195 195 c170 171 195 200 195 228 0 34 -29 62 -64 62
-12 0 -95 -75 -218 -197 l-198 -197 -198 197 c-123 122 -206 197 -218 197 -11
0 -30 -7 -42 -16z"/>
</g>
</svg>
