<?xml version="1.0" standalone="no"?>
<!DOCTYPE svg PUBLIC "-//W3C//DTD SVG 20010904//EN"
 "http://www.w3.org/TR/2001/REC-SVG-20010904/DTD/svg10.dtd">
<svg version="1.0" xmlns="http://www.w3.org/2000/svg"
 width="64" height="64" viewBox="0 0 256.000000 256.000000"
 preserveAspectRatio="xMidYMid meet">

<g transform="translate(0.000000,256.000000) scale(0.100000,-0.100000)"
fill="#787675" stroke="none">
<path d="M1588 2550 c-334 -61 -593 -297 -679 -621 -30 -109 -32 -299 -5 -404
24 -94 93 -237 149 -310 l46 -60 -75 -76 -75 -76 -39 19 c-76 38 -75 39 -497
-384 -209 -211 -388 -397 -397 -415 -59 -119 57 -252 187 -213 36 10 100 69
415 383 205 205 383 385 394 400 25 35 27 96 5 130 -15 23 -14 26 61 100 l77
76 60 -45 c393 -300 956 -194 1220 231 198 317 155 733 -103 1007 -114 120
-233 193 -394 238 -82 24 -272 35 -350 20z m318 -90 c275 -70 483 -278 554
-554 39 -155 22 -358 -44 -501 -85 -185 -256 -339 -454 -408 -163 -56 -373
-48 -536 20 -176 74 -336 233 -409 408 -90 216 -72 487 43 678 108 178 278
307 470 357 105 27 270 27 376 0z m-991 -1531 c53 -47 55 -73 9 -120 l-38 -39
-58 57 -58 57 37 38 c20 21 45 38 55 38 9 0 33 -14 53 -31z m-402 -531 c-304
-304 -319 -318 -355 -318 -50 0 -78 28 -78 77 0 36 14 52 317 355 l318 318 57
-57 58 -58 -317 -317z"/>
<path d="M1602 2390 c-113 -21 -294 -110 -308 -153 -6 -20 12 -47 32 -47 7 0
41 18 74 39 88 57 168 82 282 88 124 7 200 -7 307 -59 160 -77 288 -242 322
-416 16 -87 7 -241 -21 -319 -12 -34 -39 -90 -61 -123 -43 -66 -46 -81 -24
-100 23 -19 48 -4 85 52 77 118 118 280 106 421 -29 344 -302 608 -646 622
-52 2 -119 0 -148 -5z"/>
<path d="M1153 2088 c-78 -125 -107 -225 -107 -368 0 -120 15 -181 71 -299 82
-171 247 -307 433 -357 88 -23 254 -23 340 0 64 18 193 79 239 115 19 14 22
24 17 45 -9 37 -34 33 -108 -14 -96 -63 -180 -85 -318 -85 -94 0 -128 4 -188
24 -179 59 -324 204 -383 383 -20 60 -24 94 -24 188 0 138 22 222 85 318 43
67 50 96 24 106 -32 12 -43 5 -81 -56z"/>
<path d="M1410 1941 c-14 -27 -14 -26 21 -66 l31 -35 -31 -35 c-35 -41 -37
-48 -15 -69 21 -22 28 -20 69 15 l35 31 35 -31 c41 -35 48 -37 69 -15 22 21
20 28 -15 69 l-31 35 31 35 c34 39 38 54 19 73 -19 19 -40 14 -75 -20 l-33
-32 -33 32 c-38 37 -62 41 -77 13z"/>
<path d="M1816 1944 c-22 -21 -20 -28 15 -69 l31 -35 -31 -35 c-35 -41 -37
-48 -15 -69 21 -22 28 -20 69 15 l35 31 35 -31 c40 -35 39 -35 66 -21 27 15
24 39 -12 77 l-32 32 32 36 c34 39 38 54 19 73 -19 19 -34 15 -73 -19 l-36
-32 -32 32 c-37 35 -49 38 -71 15z"/>
<path d="M1639 1547 c-57 -16 -135 -62 -149 -87 -5 -10 -7 -25 -4 -34 11 -28
37 -27 78 2 102 73 229 69 327 -9 22 -17 30 -19 48 -10 47 25 14 72 -80 115
-68 31 -157 41 -220 23z"/>
</g>
</svg>
